<svg width="179" height="23" viewBox="0 0 179 23" fill="none" xmlns="http://www.w3.org/2000/svg">
<g clip-path="url(#clip0_9_8)">
<path d="M64.4739 4.83566H67.921V21.45H64.4739V18.1462C62.7972 20.6569 60.7146 21.9123 58.2308 21.9123C56.0769 21.9123 54.2351 21.0512 52.71 19.3336C51.1849 17.616 50.4224 15.5267 50.4224 13.0703C50.4224 10.7454 51.1938 8.71507 52.7323 6.97931C54.2708 5.23901 56.0769 4.3734 58.1505 4.3734C59.4303 4.3734 60.6478 4.73143 61.7983 5.44295C62.9488 6.15448 63.8407 7.08355 64.4739 8.22108V4.83566ZM64.0592 13.1927C64.0592 11.6745 63.5241 10.3783 62.4493 9.29517C61.3746 8.21202 60.0948 7.67271 58.5964 7.67271C57.1382 7.67271 55.8673 8.21202 54.7836 9.28611C53.7 10.3602 53.156 11.6246 53.156 13.0749C53.156 14.6475 53.6866 15.9799 54.7435 17.0812C55.8004 18.1825 57.0847 18.7308 58.5964 18.7308C60.0903 18.7308 61.3746 18.1825 62.4493 17.0902C63.5241 15.998 64.0592 14.6973 64.0592 13.1927Z" fill="#4D4D4D"/>
<path d="M69.9055 4.83567H73.3526V14.2034C73.3526 17.0902 74.6012 18.5314 77.0985 18.5314C78.2088 18.5314 79.0873 18.1462 79.734 17.3758C80.3806 16.6053 80.7061 15.5448 80.7061 14.2034V4.83567H84.1131V14.7653C84.1131 16.8455 83.4442 18.5586 82.1108 19.9001C80.7775 21.2416 79.074 21.9123 76.9959 21.9123C74.8821 21.9123 73.1697 21.2416 71.8631 19.9001C70.5565 18.5586 69.901 16.8047 69.901 14.643V4.83567H69.9055Z" fill="#4D4D4D"/>
<path d="M96.5994 13.0703C96.5994 10.7998 97.4823 8.78305 99.2438 7.0201C101.005 5.25714 103.034 4.3734 105.317 4.3734C107.668 4.3734 109.723 5.24355 111.48 6.97931C113.237 8.7196 114.116 10.7499 114.116 13.0703C114.116 15.4089 113.255 17.4664 111.529 19.243C109.804 21.0195 107.815 21.9123 105.554 21.9123C103.137 21.9123 101.036 21.0331 99.2616 19.2747C97.4868 17.5163 96.5994 15.4497 96.5994 13.0703ZM110.789 13.0794C110.789 11.6654 110.263 10.4372 109.206 9.39488C108.149 8.35251 106.892 7.83133 105.442 7.83133C103.948 7.83133 102.664 8.36158 101.589 9.41754C100.51 10.4735 99.9751 11.7334 99.9751 13.2018C99.9751 14.6022 100.519 15.8258 101.612 16.8727C102.7 17.9241 103.98 18.4453 105.447 18.4453C106.874 18.4453 108.122 17.906 109.193 16.8319C110.254 15.7578 110.789 14.507 110.789 13.0794Z" fill="#4D4D4D"/>
<path d="M127.877 13.0703C127.877 10.7998 128.76 8.78305 130.522 7.0201C132.283 5.25714 134.312 4.3734 136.596 4.3734C138.946 4.3734 141.001 5.24355 142.758 6.97931C144.515 8.7196 145.394 10.7499 145.394 13.0703C145.394 15.4089 144.533 17.4664 142.807 19.243C141.082 21.0195 139.093 21.9123 136.832 21.9123C134.415 21.9123 132.315 21.0331 130.54 19.2747C128.765 17.5163 127.877 15.4497 127.877 13.0703ZM142.067 13.0794C142.067 11.6654 141.541 10.4372 140.484 9.39488C139.427 8.35251 138.17 7.83133 136.72 7.83133C135.227 7.83133 133.942 8.36158 132.868 9.41754C131.788 10.4735 131.253 11.7334 131.253 13.2018C131.253 14.6022 131.797 15.8258 132.89 16.8727C133.978 17.9241 135.258 18.4453 136.725 18.4453C138.152 18.4453 139.401 17.906 140.471 16.8319C141.532 15.7578 142.067 14.507 142.067 13.0794Z" fill="#4D4D4D"/>
<path d="M146.594 21.4501V4.83566H149.96V7.59566C150.95 6.48079 151.851 5.66502 152.654 5.14837C153.461 4.63172 154.357 4.3734 155.347 4.3734C156.828 4.3734 158.094 4.87192 159.142 5.86443C160.19 6.85694 160.716 8.0534 160.716 9.44926V21.4546H157.269V10.4735C157.269 9.57616 156.984 8.82837 156.409 8.23921C155.833 7.65005 155.102 7.35093 154.219 7.35093C153.069 7.35093 152.079 7.84493 151.245 8.83291C150.411 9.82089 149.996 11.0128 149.996 12.4087V21.4501H146.594Z" fill="#4D4D4D"/>
<path d="M179 13.8181H165.047C165.35 15.5222 166.041 16.7685 167.116 17.5525C168.19 18.3365 169.363 18.7308 170.634 18.7308C172.587 18.7308 174.228 17.906 175.548 16.2518L178.064 18.187C176.173 20.6705 173.644 21.9123 170.474 21.9123C168.043 21.9123 166.01 21.0648 164.369 19.3744C162.732 17.6839 161.912 15.5811 161.912 13.0703C161.912 10.7228 162.741 8.68335 164.4 6.95665C166.059 5.22995 168.083 4.36887 170.474 4.36887C172.824 4.36887 174.839 5.24355 176.516 6.99744C178.193 8.75133 179.027 11.0219 179 13.8181ZM165.408 11.0173H175.397C174.286 8.7332 172.65 7.59113 170.483 7.59113C168.115 7.59113 166.425 8.7332 165.408 11.0173Z" fill="#4D4D4D"/>
<path d="M127.878 18.3909H118.972L127.878 6.13636V4.83567H116.346L114.116 7.87665H123.137L114.116 20.1584V21.4501H125.648L127.878 18.3909Z" fill="#4D4D4D"/>
<path d="M91.6494 8.03527H96.3942L98.6239 4.83567H91.6494V0H88.1978V4.79488H85.4821V8.03527H88.1978V21.4501H89.0228H91.6494H94.5034L96.7063 18.2459H91.6494V8.03527Z" fill="#4D4D4D"/>
<path d="M39.2605 5.2798H34.3552C34.3552 12.2999 28.7363 18.0148 21.8243 18.0148C14.9122 18.0148 9.29337 12.3044 9.29337 5.2798H4.38804C4.38804 10.2741 6.4349 14.788 9.71702 18.0148H2.2297L0 23H41.4233L43.653 18.0148H33.9315C37.2136 14.7925 39.2605 10.2741 39.2605 5.2798Z" fill="#7612D5"/>
<path d="M28.1254 5.2798H26.3327C26.2257 7.53222 24.3973 9.33143 22.1542 9.33143C19.9112 9.33143 18.0828 7.53675 17.9758 5.2798H16.1831C16.2901 8.53379 18.9256 11.1533 22.1542 11.1533C23.6169 11.1533 24.9547 10.614 25.9982 9.72572L26.0384 9.68946C26.8633 8.9734 27.4921 8.03074 27.8355 6.96118L27.8979 6.74818C28.0317 6.27685 28.1075 5.78739 28.1254 5.2798Z" fill="#7612D5"/>
</g>
<defs>
<clipPath id="clip0_9_8">
<rect width="179" height="23" fill="white"/>
</clipPath>
</defs>
</svg>
